<svg id="Layer_1" enable-background="new 0 0 512 512" height="512" viewBox="0 0 512 512" width="512" xmlns="http://www.w3.org/2000/svg"><path d="m408.785 409.691c-30.899 30.898-69.846 51.486-112.632 59.537-13.381 2.518-26.865 3.769-40.293 3.769-21.208.001-42.282-3.124-62.629-9.302l12.778 21.085c3.435 5.668 1.625 13.048-4.043 16.482-1.944 1.178-4.089 1.739-6.208 1.739-4.058 0-8.017-2.059-10.274-5.782l-31.314-51.672c-3.192-5.268-1.878-12.096 3.04-15.803l45.102-33.995c5.293-3.988 12.817-2.933 16.806 2.36 3.989 5.292 2.933 12.816-2.359 16.806l-28.734 21.658c22.221 8.414 45.3 12.53 68.163 12.531 49.883.004 98.759-19.517 135.627-56.385 58.676-58.677 73.097-147.89 35.884-221.997-2.974-5.923-.583-13.135 5.339-16.108 5.923-2.976 13.135-.584 16.109 5.339 41.863 83.37 25.643 183.733-40.362 249.738zm-86.267-333.011-28.665 18.982c-5.526 3.659-7.039 11.104-3.38 16.63 2.309 3.487 6.125 5.377 10.017 5.376 2.275 0 4.576-.646 6.614-1.996l47.089-31.183c5.135-3.4 6.862-10.136 3.997-15.587l-28.107-53.484c-3.083-5.867-10.338-8.125-16.205-5.04-5.867 3.082-8.123 10.338-5.04 16.204l12.844 24.441c-33.741-10.77-69.588-13.085-104.831-6.626-43.185 7.915-82.479 28.567-113.636 59.724-66.004 66.005-82.225 166.367-40.362 249.737 2.106 4.195 6.339 6.618 10.733 6.618 1.81 0 3.648-.411 5.375-1.279 5.923-2.974 8.313-10.186 5.339-16.108-37.212-74.107-22.791-163.321 35.884-221.997 53.539-53.537 131.98-70.45 202.334-44.412z"/></svg>